DataType=double
version=3
OpenSimVersion=4.5-2023-11-26-efcdfd3eb
endheader
time	EMG01_right_gast_med	EMG02_right_glut_max	EMG03_left_gast_med	EMG04_left_glut_max	EMG05_right_glut_med	EMG06_right_bic_fem	EMG07_right_rect_fem	EMG08_right_vast_lat	EMG09_right_vast_med	EMG10_right_tens_fasc_lat	EMG11_left_glut_med	EMG12_left_bic_fem	EMG13_left_rect_fem	EMG14_left_vast_lat	EMG15_left_vast_med	EMG16_left_tens_fasc_lat
2.25	0.03444733156702694	0.07423687224305016	0.350121328001483	0.0280818219899736	0.04781885334928723	0.2179471685432008	0.0477574130561108	0.01516415873710448	0.05181815961187576	0.0735575356748267	0.05492042150619014	0.01688753744776258	0.07604919405900802	0.02842354915197805	0.01662992360848711	0.02996006241623779
2.26	0.03690684293052378	0.07634614114910439	0.3369311691449404	0.03148812240638416	0.05205489314275767	0.2135530495970015	0.04977292654114018	0.01615842620986629	0.0558802377115638	0.07750201395654065	0.05297578317950832	0.01628445850096709	0.07453599883310152	0.02946904168450685	0.01763034748705063	0.026779586454982
2.27	0.03961026876975074	0.07864250586285648	0.3224221848021347	0.03528149771825672	0.05621972494997822	0.2085474893062712	0.05168767797469126	0.01716548299077861	0.05990299905526635	0.0818365144824373	0.05108520517783974	0.01559266518623743	0.07285168371167555	0.03046461422498516	0.01868829978294749	0.02428602864482236
2.28	0.04257123643313215	0.08107407719123762	0.3067343194594628	0.03944290575373376	0.06026378438451076	0.2029946269578929	0.0534816927578411	0.01817334744906378	0.06384782296183956	0.08649746995916838	0.04924246354826824	0.01482102488934845	0.07100665157895035	0.03140225040529861	0.01978070820139333	0.0224890232426473
2.29	0.04580184829709767	0.08358801921622037	0.2900225252639533	0.04394828682977793	0.06414071795428918	0.1969634465074879	0.05513650943197735	0.01917017712398983	0.06767622889803517	0.09141769397924268	0.0474419530582763	0.01397976802836797	0.06901256297564153	0.03227442439805941	0.02088513530646008	0.02139233834302363
2.3	0.04931263310887506	0.08613137442443848	0.2724534659916732	0.04876859247240718	0.06780785084032995	0.190526776375041	0.05663539206321762	0.02014440097024906	0.0713503837622599	0.09652740974077592	0.04567877557058099	0.01308035934574633	0.06688223672455969	0.03307410613631116	0.02197997129750075	0.02099390063276641
2.31	0.05311250976429303	0.08865186765204761	0.2542021356798964	0.05386990499263976	0.0712266065383113	0.1837602800878295	0.05796352112918782	0.02108484991102115	0.07483360797634148	0.1017553002151714	0.04394883318730321	0.01213536414274435	0.06462954910780107	0.03379478469922654	0.02304461998100154	0.02128586959886324
2.32	0.05720875484139586	0.09109867593131571	0.2354484890950952	0.05921365240032659	0.07436287157884153	0.1767414552501681	0.05910816304300563	0.02198088460300125	0.07809087135129632	0.1070295631190443	0.04224892404632393	0.01115831036866901	0.06226932905796948	0.03443051163208492	0.02405967848196256	0.02225475871263377
2.33	0.06160696457839895	0.0934231539241398	0.2163741697616874	0.06475692114554492	0.07718729729779449	0.1695486546373848	0.06005881854233211	0.02282251901560043	0.08108927075698762	0.11227895408842	0.04057683891493667	0.01016354745000281	0.05981724838740488	0.03497596459223282	0.02500711091446776	0.0238816013793479
2.34	0.06631100191334768	0.09557950654609602	0.1971594083344494	0.07045286715579496	0.0796755304917805	0.1622601382382468	0.0608073495849709	0.02360053805096181	0.08379848293743063	0.1174338007963432	0.03893145713929102	0.00916610265024293	0.05728970782840048	0.03542653047876503	0.0258704158395165	0.02614215977591532
2.35	0.07132292019937134	0.09752540108453331	0.1779801502938833	0.07625122360157359	0.08180836697141461	0.1549531609012129	0.06134808382314678	0.02430660721972535	0.08619118654122813	0.1224269692384923	0.03731284074936601	0.008181535509670549	0.05470372095194079	0.03577840623149942	0.02663478687588815	0.02900717499931699
2.36	0.07664285772025561	0.09922251085447382	0.1590054583111955	0.08209890173853573	0.08357182618309889	0.147703097600703	0.06167789533629914	0.02493337249809607	0.08824344730692964	0.1271947622402651	0.0357223253843155	0.007225790572052992	0.05207679865188992	0.03602871476182157	0.02728726529622112	0.03244265707940448
2.37	0.08226890108808758	0.1006369820935556	0.1403952219911882	0.08794067889907421	0.08495714946008821	0.1405826069672735	0.0617962597331768	0.0254745488996925	0.08993505968883798	0.1316777313500575	0.03416260622864769	0.006315048270471059	0.04942683699983214	0.03617563283867058	0.02781688283888721	0.03641021327724918
2.38	0.08819692053644274	0.1017398161551818	0.1222981963745324	0.09371996501194783	0.08596072738884573	0.133660833728404	0.06170528100001457	0.02592499673534469	0.09124983746920419	0.1358213880517763	0.03263781650708929	0.005465573622166628	0.04677201110618216	0.0362185270850188	0.02821479232291393	0.04086741278855397
2.39	0.09442038511973001	0.1025071604565066	0.1048503805587516	0.09937963584586661	0.08658396269986686	0.1270026524017754	0.06140968723479224	0.02628078470417825	0.0921758455999817	0.139576808269562	0.03115359537871521	0.00469356235584382	0.04413067708562822	0.03615809364531432	0.02847438299195542	0.04576818571660612
2.4	0.1009301694636185	0.1029205042263504	0.08817373901354091	0.1048629177595459	0.08683307456976527	0.1206679574526475	0.06091679319721489	0.02653923876176537	0.09270556622111728	0.1429011330276969	0.02971714131634501	0.004014984280842352	0.04152128317443958	0.03599649665295632	0.02859137687300314	0.05106325413079406
2.41	0.1077143650622801	0.1029667787169069	0.07237526055340995	0.1101143054715937	0.08671884930659718	0.1147110079861521	0.06023642906764353	0.02669897517589301	0.09283599358990381	0.1457579747952888	0.02833724634874001	0.003445424016807639	0.038962289679673	0.0357375001705098	0.02856390196915314	0.05670059321811628
2.42	0.1147581087877464	0.1026383652988867	0.05754634335550365	0.1150804913991588	0.08625634206783372	0.1091798370093516	0.05938083597240312	0.02675991539217849	0.09256865507852353	0.1481177419003228	0.0270243060264538	0.002999919514296561	0.03647209614809492	0.03538658747136478	0.02839253804605467	0.06262592076225557
2.43	0.1220434404042109	0.1019330177594741	0.04376248876390054	0.1197112823877621	0.0854645350198993	0.104115735968624	0.05836452902829933	0.02672327963961159	0.09190955798762777	0.1499578928008934	0.02579029964748527	0.002692799069526429	0.03406897315713995	0.03495106026403436	0.02808033121747405	0.06878321297490707
2.44	0.1295491995273534	0.1008537069870649	0.03108328198611577	0.1239604772550478	0.08436595892895407	0.09955282450938889	0.05720412811024501	0.0265915562420926	0.09086906410178587	0.1512631289007669	0.02464873511613727	0.002537517787344759	0.03177099553178237	0.03444010898744659	0.02763277440886223	0.0751152436750174
2.45	0.1372509698433419	0.09940839715995671	0.01955263430457052	0.127786677126197	0.08298628661474884	0.09551771350019937	0.0559181560986769	0.02636844475499035	0.0894616949594926	0.1520255297527985	0.02361455311893139	0.002546494659438136	0.02959597367607268	0.03386484423966735	0.02705775196955347	0.08156414198657395
2.46	0.1451210742471711	0.09760976227821036	0.009199259009767261	0.1311540008922495	0.081353907051219	0.09202926703232558	0.05452680462958821	0.026058773009064	0.08770587080196117	0.1522446287580577	0.02270398660182643	0.002730951565730309	0.02756138011500415	0.03323827950591577	0.02636544802042818	0.08807196132267439
2.47	0.1531286197186239	0.09547485052670716	3.735165538971146e-05	0.1340326804359682	0.07949948815715903	0.08909846702418976	0.05305166827003022	0.02566839019182964	0.08562358636951604	0.1519274217432025	0.02193437385705354	0.003100755614722974	0.02568426903793135	0.03257525714345284	0.02556821921981137	0.09458124965056146
2.48	0.1612395866837203	0.09302470256633698	-0.007932555718924155	0.1363995140615361	0.0774555352698785	0.08672838244118142	0.0515154492981431	0.025204039652178	0.08324002837489423	0.1510882957697592	0.02132392626579168	0.003664266413370597	0.02398118722924007	0.03189231297052138	0.02468043332467921	0.1010356084000371
2.49	0.1694169555696489	0.09028392919289102	-0.01472259709785562	0.1382381619140913	0.07525595137847729	0.08491424384237238	0.04994163680499886	0.02467321594056756	0.0805831423874665	0.1497488619830522	0.02089145429660927	0.004428190148774376	0.02246807514933134	0.03120747901741126	0.02371827542414751	0.107380225900001
2.5	0.1776208636992365	0.08728025371059937	-0.02035646226071209	0.139539274754006	0.0729356042331009	0.08364362273091096	0.04835416535566789	0.02408401074121777	0.07768315955863996	0.1479376754752112	0.02065605749394859	0.005397442726796228	0.02116015729006237	0.03054002799234188	0.02269952427058683	0.1135623718435855
2.51	0.1858087881645625	0.08404402458760149	-0.02486820375461224	0.1403004568745206	0.07052990437273347	0.08289671363794088	0.04677705934279008	0.02344495210702226	0.07457209508028022	0.145689827945279	0.02063678572450098	0.006575024555748607	0.02007182137521296	0.029910166210933	0.02164330164582804	0.1195318422360352
2.52	0.1939357536434752	0.08060770452742476	-0.02830099001480551	0.1405260733407631	0.06807439719596929	0.08264671472502849	0.04523406930715705	0.02276484115774259	0.07128323074587149	0.1430464050046755	0.02085227965359378	0.00796190979596764	0.01921648642294872	0.02933868414771899	0.0205697979943915	0.1252413491431877
2.53	0.2019545662278102	0.07700534269185234	-0.03070583205412679	0.1402269191293907	0.06560437155563927	0.08286030033764928	0.04374830644939996	0.02205259033647735	0.0678505940317566	0.1400538079742455	0.02132039829376711	0.009556952957623918	0.01860646019207737	0.02884657541914986	0.01949997774010035	0.1306468550940051
2.54	0.2098160735390898	0.07327203704931139	-0.03214030904880548	0.1394197720034367	0.06315448677279183	0.08349817741589881	0.0423418817542324	0.02131706728792867	0.06430844567884489	0.1367629485557995	0.02205784078032158	0.01135681562910016	0.01825278730926851	0.02845463570581519	0.0184552680413744	0.1357078561489094
2.55	0.2174694486103126	0.06944339403472052	-0.03266731561119626	0.1381268518001855	0.06075841921699072	0.08451571762664287	0.0410355564059008	0.02056694814399904	0.0606907866337061	0.1332283324665171	0.02307976865637542	0.01335591593196328	0.01816509038857941	0.02818305284676245	0.01745723525233749	0.140387619168884
